<svg width="173" height="244" viewBox="0 0 173 244" fill="none" xmlns="http://www.w3.org/2000/svg">
<path fill-rule="evenodd" clip-rule="evenodd" d="M164.886 149.934C169.038 154.088 169.038 160.822 164.886 164.975L94.0166 235.885C89.8651 240.038 83.1353 240.038 78.9837 235.885L8.11359 164.975C3.96218 160.822 3.96218 154.088 8.11359 149.934C12.265 145.78 18.9959 145.78 23.1473 149.934L75.8697 202.685V86.5456C75.8697 76.4294 72.7486 61.0184 63.6986 48.4422C55.0397 36.4082 40.5137 26.2728 15.6305 26.2728C9.75947 26.2728 5 21.5106 5 15.6364C5 9.76212 9.75947 5 15.6305 5C47.443 5 68.3519 18.5008 80.9539 36.0124C93.1648 52.9817 97.1306 73.0253 97.1306 86.5456V202.685L149.853 149.934C154.005 145.78 160.735 145.78 164.886 149.934Z" fill="white" stroke="white" stroke-width="20"/>
</svg>
